<svg xmlns="http://www.w3.org/2000/svg" xmlns:v="https://svgstorm.com"
viewBox = "0 0 500 500"
width="500"
height="500">
<g fill="None" fill-opacity="0.0" stroke="#000000" stroke-opacity="0.00" stroke-width="0.3"><path d="
M 0.00 500.00 
L 500.00 500.00
L 500.00 0.00
L 0.00 0.00
L 0.00 500.00
M 366.00 195.00 
C 353.60 226.60 339.01 257.26 327.00 289.00
C 321.18 304.39 315.13 319.24 308.23 334.23 C 301.33 349.22 297.87 365.89 289.22 380.22 C 280.58 394.56 284.05 413.63 266.92 422.92 C 249.79 432.21 237.51 408.93 236.22 392.78 C 234.94 376.62 226.84 357.29 223.22 340.78 C 219.60 324.27 215.25 304.64 211.00 288.00
C 207.69 275.04 189.63 277.16 177.98 273.02 C 166.32 268.88 151.83 267.25 139.78 263.22 C 127.73 259.19 113.01 258.17 100.99 254.01 C 88.98 249.85 74.57 250.98 66.70 239.30 C 58.82 227.62 69.43 214.72 81.08 211.08 C 92.73 207.43 103.71 201.56 115.22 197.22 C 126.74 192.89 138.51 187.51 150.00 183.00
C 166.32 176.59 182.82 169.46 199.02 163.02 C 215.23 156.59 231.58 148.86 247.69 142.69 C 263.81 136.53 281.58 128.33 297.22 122.22 C 312.86 116.12 331.59 107.66 346.22 102.22 C 360.85 96.79 384.64 79.67 396.75 95.25 C 408.87 110.83 390.88 129.63 386.22 145.22 C 381.57 160.82 372.07 179.53 366.00 195.00 Z"/>
</g>
<g fill="None" fill-opacity="0.0" stroke="#9D50E7" stroke-opacity="0.98" stroke-width="0.3"><path d="
M 150.00 183.00 
C 147.46 185.43 148.16 188.75 152.00 189.00
C 151.14 183.55 167.11 186.76 170.00 192.00
C 175.43 191.26 183.62 190.01 190.00 194.00
C 193.95 189.16 204.87 191.06 208.00 194.00
C 211.05 189.73 217.96 191.14 222.00 192.00
C 248.84 180.95 276.34 170.85 303.00 159.00
C 303.45 161.31 300.47 162.07 300.00 164.00
C 293.33 172.45 284.56 180.44 277.00 188.00
C 277.50 193.01 287.30 191.65 291.00 192.00 C 294.70 192.35 303.94 190.25 306.00 195.00
C 303.77 188.44 308.57 193.76 312.00 192.00
C 312.23 196.70 307.17 197.77 306.00 202.00
C 311.43 204.24 313.21 193.48 319.00 194.00
C 318.46 195.66 316.44 196.33 316.00 198.00
C 320.18 193.82 324.85 190.20 329.00 186.00
C 329.93 185.06 330.44 183.22 332.00 183.00
C 331.54 185.94 329.80 189.29 331.00 192.00
C 333.37 191.03 334.37 188.42 336.00 187.00
C 332.21 201.21 355.17 189.12 358.00 195.00
C 359.19 193.29 360.65 190.88 363.00 191.00
C 360.66 196.21 362.65 194.32 366.00 195.00
C 372.07 179.53 381.57 160.82 386.22 145.22 C 390.88 129.63 408.87 110.83 396.75 95.25 C 384.64 79.67 360.85 96.79 346.22 102.22 C 331.59 107.66 312.86 116.12 297.22 122.22 C 281.58 128.33 263.81 136.53 247.69 142.69 C 231.58 148.86 215.23 156.59 199.02 163.02 C 182.82 169.46 166.32 176.59 150.00 183.00 Z"/>
</g>
<g fill="None" fill-opacity="0.0" stroke="#000000" stroke-opacity="0.00" stroke-width="0.3"><path d="
M 222.00 192.00 
C 195.88 202.75 169.67 214.89 143.00 225.00
C 152.96 231.25 167.55 232.51 180.02 235.98 C 192.50 239.44 206.00 243.12 219.00 245.00
C 225.05 242.97 228.91 232.50 234.75 228.75 C 240.59 225.00 245.20 217.48 250.75 212.75 C 256.31 208.02 261.87 201.44 267.25 196.25 C 272.63 191.06 278.09 185.78 283.25 180.25 C 288.40 174.71 294.95 169.47 300.00 164.00
C 300.47 162.07 303.45 161.31 303.00 159.00
C 276.34 170.85 248.84 180.95 222.00 192.00 Z"/>
</g>
<g fill="None" fill-opacity="0.0" stroke="#845AB7" stroke-opacity="0.25" stroke-width="0.3"><path d="
M 219.00 245.00 
C 226.69 242.97 231.54 230.93 238.25 226.25 C 244.95 221.56 250.97 213.08 257.25 207.25 C 263.53 201.41 270.94 194.06 277.00 188.00
C 284.56 180.44 293.33 172.45 300.00 164.00
C 294.95 169.47 288.40 174.71 283.25 180.25 C 278.09 185.78 272.63 191.06 267.25 196.25 C 261.87 201.44 256.31 208.02 250.75 212.75 C 245.20 217.48 240.59 225.00 234.75 228.75 C 228.91 232.50 225.05 242.97 219.00 245.00 Z"/>
</g>
<g fill="None" fill-opacity="0.0" stroke="#8D47CD" stroke-opacity="0.97" stroke-width="0.3"><path d="
M 211.00 288.00 
C 212.32 289.21 217.18 288.46 220.00 286.00
C 220.77 288.61 218.62 290.85 220.00 293.00
C 226.18 291.60 233.86 291.20 240.00 293.00
C 240.89 288.84 243.59 291.67 240.00 287.00
C 243.47 286.73 244.33 285.45 246.00 283.00
C 242.27 268.38 253.24 260.73 263.25 251.25 C 273.26 241.77 281.04 234.96 290.25 225.25 C 299.46 215.54 306.68 207.32 316.00 198.00
C 316.44 196.33 318.46 195.66 319.00 194.00
C 313.21 193.48 311.43 204.24 306.00 202.00
C 307.17 197.77 312.23 196.70 312.00 192.00
C 308.57 193.76 303.77 188.44 306.00 195.00
C 303.94 190.25 294.70 192.35 291.00 192.00 C 287.30 191.65 277.50 193.01 277.00 188.00
C 270.94 194.06 263.53 201.41 257.25 207.25 C 250.97 213.08 244.95 221.56 238.25 226.25 C 231.54 230.93 226.69 242.97 219.00 245.00
C 206.00 243.12 192.50 239.44 180.02 235.98 C 167.55 232.51 152.96 231.25 143.00 225.00
C 169.67 214.89 195.88 202.75 222.00 192.00
C 217.96 191.14 211.05 189.73 208.00 194.00
C 204.87 191.06 193.95 189.16 190.00 194.00
C 183.62 190.01 175.43 191.26 170.00 192.00
C 167.11 186.76 151.14 183.55 152.00 189.00
C 148.16 188.75 147.46 185.43 150.00 183.00
C 138.51 187.51 126.74 192.89 115.22 197.22 C 103.71 201.56 92.73 207.43 81.08 211.08 C 69.43 214.72 58.82 227.62 66.70 239.30 C 74.57 250.98 88.98 249.85 100.99 254.01 C 113.01 258.17 127.73 259.19 139.78 263.22 C 151.83 267.25 166.32 268.88 177.98 273.02 C 189.63 277.16 207.69 275.04 211.00 288.00 Z"/>
</g>
<g fill="None" fill-opacity="0.0" stroke="#8B46CA" stroke-opacity="0.96" stroke-width="0.3"><path d="
M 329.00 186.00 
C 321.25 201.19 317.44 220.64 309.08 237.08 C 300.71 253.51 295.02 272.95 288.00 290.00
C 287.99 290.67 289.87 292.86 288.00 294.00
C 294.77 292.91 302.87 292.18 310.00 293.00 C 317.13 293.82 322.34 290.81 327.00 289.00
C 339.01 257.26 353.60 226.60 366.00 195.00
C 362.65 194.32 360.66 196.21 363.00 191.00
C 360.65 190.88 359.19 193.29 358.00 195.00
C 355.17 189.12 332.21 201.21 336.00 187.00
C 334.37 188.42 333.37 191.03 331.00 192.00
C 329.80 189.29 331.54 185.94 332.00 183.00
C 330.44 183.22 329.93 185.06 329.00 186.00 Z"/>
</g>
<g fill="None" fill-opacity="0.0" stroke="#000000" stroke-opacity="0.00" stroke-width="0.3"><path d="
M 316.00 198.00 
C 306.68 207.32 299.46 215.54 290.25 225.25 C 281.04 234.96 273.26 241.77 263.25 251.25 C 253.24 260.73 242.27 268.38 246.00 283.00
C 251.34 303.92 257.66 326.10 263.00 347.00
C 272.56 328.89 278.32 308.02 288.00 290.00
C 295.02 272.95 300.71 253.51 309.08 237.08 C 317.44 220.64 321.25 201.19 329.00 186.00
C 324.85 190.20 320.18 193.82 316.00 198.00 Z"/>
</g>
<g fill="None" fill-opacity="0.0" stroke="#7739A9" stroke-opacity="0.97" stroke-width="0.3"><path d="
M 211.00 288.00 
C 215.25 304.64 219.60 324.27 223.22 340.78 C 226.84 357.29 234.94 376.62 236.22 392.78 C 237.51 408.93 249.79 432.21 266.92 422.92 C 284.05 413.63 280.58 394.56 289.22 380.22 C 297.87 365.89 301.33 349.22 308.23 334.23 C 315.13 319.24 321.18 304.39 327.00 289.00
C 322.34 290.81 317.13 293.82 310.00 293.00 C 302.87 292.18 294.77 292.91 288.00 294.00
C 289.87 292.86 287.99 290.67 288.00 290.00
C 278.32 308.02 272.56 328.89 263.00 347.00
C 257.66 326.10 251.34 303.92 246.00 283.00
C 244.33 285.45 243.47 286.73 240.00 287.00
C 243.59 291.67 240.89 288.84 240.00 293.00
C 233.86 291.20 226.18 291.60 220.00 293.00
C 218.62 290.85 220.77 288.61 220.00 286.00
C 217.18 288.46 212.32 289.21 211.00 288.00 Z"/>
</g>
<g fill="#000000" fill-opacity="0.00" stroke="None">
<path d="
M 0.00 500.00 
L 500.00 500.00
L 500.00 0.00
L 0.00 0.00
L 0.00 500.00
M 366.00 195.00 
C 353.60 226.60 339.01 257.26 327.00 289.00
C 321.18 304.39 315.13 319.24 308.23 334.23 C 301.33 349.22 297.87 365.89 289.22 380.22 C 280.58 394.56 284.05 413.63 266.92 422.92 C 249.79 432.21 237.51 408.93 236.22 392.78 C 234.94 376.62 226.84 357.29 223.22 340.78 C 219.60 324.27 215.25 304.64 211.00 288.00
C 207.69 275.04 189.63 277.16 177.98 273.02 C 166.32 268.88 151.83 267.25 139.78 263.22 C 127.73 259.19 113.01 258.17 100.99 254.01 C 88.98 249.85 74.57 250.98 66.70 239.30 C 58.82 227.62 69.43 214.72 81.08 211.08 C 92.73 207.43 103.71 201.56 115.22 197.22 C 126.74 192.89 138.51 187.51 150.00 183.00
C 166.32 176.59 182.82 169.46 199.02 163.02 C 215.23 156.59 231.58 148.86 247.69 142.69 C 263.81 136.53 281.58 128.33 297.22 122.22 C 312.86 116.12 331.59 107.66 346.22 102.22 C 360.85 96.79 384.64 79.67 396.75 95.25 C 408.87 110.83 390.88 129.63 386.22 145.22 C 381.57 160.82 372.07 179.53 366.00 195.00 Z"/>
</g>
<g fill="#9D50E7" fill-opacity="0.98" stroke="None">
<path d="
M 150.00 183.00 
C 147.46 185.43 148.16 188.75 152.00 189.00
C 151.14 183.55 167.11 186.76 170.00 192.00
C 175.43 191.26 183.62 190.01 190.00 194.00
C 193.95 189.16 204.87 191.06 208.00 194.00
C 211.05 189.73 217.96 191.14 222.00 192.00
C 248.84 180.95 276.34 170.85 303.00 159.00
C 303.45 161.31 300.47 162.07 300.00 164.00
C 293.33 172.45 284.56 180.44 277.00 188.00
C 277.50 193.01 287.30 191.65 291.00 192.00 C 294.70 192.35 303.94 190.25 306.00 195.00
C 303.77 188.44 308.57 193.76 312.00 192.00
C 312.23 196.70 307.17 197.77 306.00 202.00
C 311.43 204.24 313.21 193.48 319.00 194.00
C 318.46 195.66 316.44 196.33 316.00 198.00
C 320.18 193.82 324.85 190.20 329.00 186.00
C 329.93 185.06 330.44 183.22 332.00 183.00
C 331.54 185.94 329.80 189.29 331.00 192.00
C 333.37 191.03 334.37 188.42 336.00 187.00
C 332.21 201.21 355.17 189.12 358.00 195.00
C 359.19 193.29 360.65 190.88 363.00 191.00
C 360.66 196.21 362.65 194.32 366.00 195.00
C 372.07 179.53 381.57 160.82 386.22 145.22 C 390.88 129.63 408.87 110.83 396.75 95.25 C 384.64 79.67 360.85 96.79 346.22 102.22 C 331.59 107.66 312.86 116.12 297.22 122.22 C 281.58 128.33 263.81 136.53 247.69 142.69 C 231.58 148.86 215.23 156.59 199.02 163.02 C 182.82 169.46 166.32 176.59 150.00 183.00 Z"/>
</g>
<g fill="#000000" fill-opacity="0.00" stroke="None">
<path d="
M 222.00 192.00 
C 195.88 202.75 169.67 214.89 143.00 225.00
C 152.96 231.25 167.55 232.51 180.02 235.98 C 192.50 239.44 206.00 243.12 219.00 245.00
C 225.05 242.97 228.91 232.50 234.75 228.75 C 240.59 225.00 245.20 217.48 250.75 212.75 C 256.31 208.02 261.87 201.44 267.25 196.25 C 272.63 191.06 278.09 185.78 283.25 180.25 C 288.40 174.71 294.95 169.47 300.00 164.00
C 300.47 162.07 303.45 161.31 303.00 159.00
C 276.34 170.85 248.84 180.95 222.00 192.00 Z"/>
</g>
<g fill="#845AB7" fill-opacity="0.25" stroke="None">
<path d="
M 219.00 245.00 
C 226.69 242.97 231.54 230.93 238.25 226.25 C 244.95 221.56 250.97 213.08 257.25 207.25 C 263.53 201.41 270.94 194.06 277.00 188.00
C 284.56 180.44 293.33 172.45 300.00 164.00
C 294.95 169.47 288.40 174.71 283.25 180.25 C 278.09 185.78 272.63 191.06 267.25 196.25 C 261.87 201.44 256.31 208.02 250.75 212.75 C 245.20 217.48 240.59 225.00 234.75 228.75 C 228.91 232.50 225.05 242.97 219.00 245.00 Z"/>
</g>
<g fill="#8D47CD" fill-opacity="0.97" stroke="None">
<path d="
M 211.00 288.00 
C 212.32 289.21 217.18 288.46 220.00 286.00
C 220.77 288.61 218.62 290.85 220.00 293.00
C 226.18 291.60 233.86 291.20 240.00 293.00
C 240.89 288.84 243.59 291.67 240.00 287.00
C 243.47 286.73 244.33 285.45 246.00 283.00
C 242.27 268.38 253.24 260.73 263.25 251.25 C 273.26 241.77 281.04 234.96 290.25 225.25 C 299.46 215.54 306.68 207.32 316.00 198.00
C 316.44 196.33 318.46 195.66 319.00 194.00
C 313.21 193.48 311.43 204.24 306.00 202.00
C 307.17 197.77 312.23 196.70 312.00 192.00
C 308.57 193.76 303.77 188.44 306.00 195.00
C 303.94 190.25 294.70 192.35 291.00 192.00 C 287.30 191.65 277.50 193.01 277.00 188.00
C 270.94 194.06 263.53 201.41 257.25 207.25 C 250.97 213.08 244.95 221.56 238.25 226.25 C 231.54 230.93 226.69 242.97 219.00 245.00
C 206.00 243.12 192.50 239.44 180.02 235.98 C 167.55 232.51 152.96 231.25 143.00 225.00
C 169.67 214.89 195.88 202.75 222.00 192.00
C 217.96 191.14 211.05 189.73 208.00 194.00
C 204.87 191.06 193.95 189.16 190.00 194.00
C 183.62 190.01 175.43 191.26 170.00 192.00
C 167.11 186.76 151.14 183.55 152.00 189.00
C 148.16 188.75 147.46 185.43 150.00 183.00
C 138.51 187.51 126.74 192.89 115.22 197.22 C 103.71 201.56 92.73 207.43 81.08 211.08 C 69.43 214.72 58.82 227.62 66.70 239.30 C 74.57 250.98 88.98 249.85 100.99 254.01 C 113.01 258.17 127.73 259.19 139.78 263.22 C 151.83 267.25 166.32 268.88 177.98 273.02 C 189.63 277.16 207.69 275.04 211.00 288.00 Z"/>
</g>
<g fill="#8B46CA" fill-opacity="0.96" stroke="None">
<path d="
M 329.00 186.00 
C 321.25 201.19 317.44 220.64 309.08 237.08 C 300.71 253.51 295.02 272.95 288.00 290.00
C 287.99 290.67 289.87 292.86 288.00 294.00
C 294.77 292.91 302.87 292.18 310.00 293.00 C 317.13 293.82 322.34 290.81 327.00 289.00
C 339.01 257.26 353.60 226.60 366.00 195.00
C 362.65 194.32 360.66 196.21 363.00 191.00
C 360.65 190.88 359.19 193.29 358.00 195.00
C 355.17 189.12 332.21 201.21 336.00 187.00
C 334.37 188.42 333.37 191.03 331.00 192.00
C 329.80 189.29 331.54 185.94 332.00 183.00
C 330.44 183.22 329.93 185.06 329.00 186.00 Z"/>
</g>
<g fill="#000000" fill-opacity="0.00" stroke="None">
<path d="
M 316.00 198.00 
C 306.68 207.32 299.46 215.54 290.25 225.25 C 281.04 234.96 273.26 241.77 263.25 251.25 C 253.24 260.73 242.27 268.38 246.00 283.00
C 251.34 303.92 257.66 326.10 263.00 347.00
C 272.56 328.89 278.32 308.02 288.00 290.00
C 295.02 272.95 300.71 253.51 309.08 237.08 C 317.44 220.64 321.25 201.19 329.00 186.00
C 324.85 190.20 320.18 193.82 316.00 198.00 Z"/>
</g>
<g fill="#7739A9" fill-opacity="0.97" stroke="None">
<path d="
M 211.00 288.00 
C 215.25 304.64 219.60 324.27 223.22 340.78 C 226.84 357.29 234.94 376.62 236.22 392.78 C 237.51 408.93 249.79 432.21 266.92 422.92 C 284.05 413.63 280.58 394.56 289.22 380.22 C 297.87 365.89 301.33 349.22 308.23 334.23 C 315.13 319.24 321.18 304.39 327.00 289.00
C 322.34 290.81 317.13 293.82 310.00 293.00 C 302.87 292.18 294.77 292.91 288.00 294.00
C 289.87 292.86 287.99 290.67 288.00 290.00
C 278.32 308.02 272.56 328.89 263.00 347.00
C 257.66 326.10 251.34 303.92 246.00 283.00
C 244.33 285.45 243.47 286.73 240.00 287.00
C 243.59 291.67 240.89 288.84 240.00 293.00
C 233.86 291.20 226.18 291.60 220.00 293.00
C 218.62 290.85 220.77 288.61 220.00 286.00
C 217.18 288.46 212.32 289.21 211.00 288.00 Z"/>
</g>
</svg>